<?xml version="1.0" encoding="utf-8"?>
<!-- Generator: Adobe Illustrator 21.0.2, SVG Export Plug-In . SVG Version: 6.00 Build 0)  -->
<svg version="1.1" id="Layer_1" xmlns="http://www.w3.org/2000/svg" xmlns:xlink="http://www.w3.org/1999/xlink" x="0px" y="0px"
	 viewBox="0 0 379.4 173.6" style="enable-background:new 0 0 379.4 173.6;" xml:space="preserve">
<style type="text/css">
	.st0{fill:#FFFFFF;}
</style>
<g>
	<path class="st0" d="M196.9,126.5c-10.3-0.2-20.6-0.8-30.9,0c-1.4,0.1-3.5,0.7-4.2-1.3c-0.8-2.1,1.3-2.7,2.5-3.6
		c16.9-13.5,31.7-29,43.3-47.3c6.6-10.5,9.7-22,7.1-34.5c-3.3-15.7-20.9-22.3-33.7-12.8c-4.2,3.1-7,7.3-9.4,11.8
		c-0.8,1.5-1.6,2.5-3.4,1.4c-1.5-0.9-2-1.7-1.4-3.6c6.5-18.5,30.9-29.1,48.7-21.1c12.9,5.8,18.7,20.1,14.5,35.7
		c-2.9,11.1-9.6,20.1-16.9,28.6c-8,9.4-16.1,18.6-24,28c-1.5,1.7-4,3.8-3,5.9c0.8,1.6,4.1,1.1,6.2,1.1c8.7,0,17.4,0.2,26.1-0.3
		c6.8-0.4,11.9-3.2,15.4-9c0.9-1.5,1.7-2.7,3.8-1.7c2.2,1,1,2.5,0.7,3.8c-1.4,5.5-3.3,10.9-5.7,16.1c-0.9,1.9-2,2.7-4.3,2.6
		C217.7,126.4,207.3,126.5,196.9,126.5z"/>
	<path class="st0" d="M70.5,67.8c3,0,4.7-0.9,4.7-4.2c0.1-3.8-2.4-3.4-4.8-3.3c-8.6,0.4-17-0.2-25.1-4C40,53.7,34,53.7,28.1,54.2
		C16.6,55.3,7,63.1,4,73.9c-3,10.6,0.4,19.6,10.5,27.2c1.6,1.2,1.8,1.9,0.5,3.5C12,108,8.7,111,5,113.5c-2.5,1.7-2.9,3.7-2,6.4
		c1.8,5.1,5.6,8.2,10.4,10c3.2,1.2,2.6,2.5,0.8,4.3c-3.6,3.6-7.3,7.1-10.9,10.7c-2.8,2.8-3.8,6.2-3.1,10.2
		c1.4,8.6,6.9,13.8,14.7,16.1c16.8,5,32.5,2.1,46.6-8.3c5-3.7,8.8-8.5,10.6-14.5c3.7-11.9,1-25.6-16.8-27.5
		c-5.2-0.5-10.4-0.2-15.6,0.2c-4.1,0-8.2,0-12.3,0c-2.5,0-5-0.3-7.3-1.3c-5-2.2-6.1-6.7-2.7-10.9c2.5-3.1,5.5-5,9.9-4.5
		c7.4,0.9,14.7,0,21.2-4.2c8.3-5.4,11.6-13.5,12.2-23.1c0.2-3.1-1.8-7,0.4-8.9C63.3,66.3,67.3,67.8,70.5,67.8z M27.4,132.4
		c3.6-0.6,7.2-0.4,10.8-0.5c3.8,0.1,7.7-0.2,11.5,0.5c6,1.1,10.9,3.6,12.6,10c1.8,6.7-0.4,12.3-5.5,16.7c-8.3,7.3-25.6,8.7-35.2,2.9
		c-6.3-3.8-9.1-9.8-7.7-16.7C15.3,138.3,20.3,133.5,27.4,132.4z M46.1,90.6c-3.8,9.2-14.7,11.7-22,4.9c-7.8-7.3-8.7-23-1.8-31.2
		c5.7-6.8,15.6-6.5,20.9,0.6c3,3.9,4.4,9.1,4.4,15.9C47.7,84.1,47.4,87.4,46.1,90.6z"/>
	<path class="st0" d="M303.4,67.6c2.6,0.2,5.2-0.1,7.8,0.1c2.9,0.1,3.6-1.8,3.7-4c0.2-2.6-1.3-3.5-3.7-3.4c-1.7,0.1-3.5-0.1-5.2,0
		c-6.5,0.4-12.8-0.4-18.8-3.3c-5.5-2.6-11.4-3.2-17.5-2.9c-11.9,0.6-22.1,7.8-25.6,18.4c-2.8,8.5-2.3,20.4,10,28.6
		c1.7,1.1,1.7,2,0.5,3.5c-2.9,3.3-6,6.3-9.7,8.7c-2.8,1.8-3.2,4-2.1,7c2,5,6,7.9,10.7,9.8c2.2,0.9,2.3,1.8,0.9,3.5
		c-3,3.7-6.7,6.6-10.1,10c-5.2,5.2-6,11.1-2.5,17.6c3.3,6.1,8.7,9.5,15.2,11c16,3.6,30.9,0.8,44.1-9c4.9-3.6,8.4-8.4,10.5-14.2
		c5.2-14.6-1.3-25.6-16.6-27.9c-5.3-0.8-10.7-0.2-16-0.2c-2.9,0.1-5.7,0.3-8.6,0.4c-2.9,0.1-5.7,0.1-8.5-0.6c-3-0.7-5.7-2-6.6-5.3
		c-0.9-3.1,0.9-5.4,2.9-7.6c2.8-3.2,6.2-3.3,10.1-3c16.1,1.1,27.9-6.8,31-20.7c1-4.3,1.4-8.6,0.8-13
		C299.8,68.2,300.8,67.4,303.4,67.6z M258.2,136.5c3-3.1,6.7-4.1,10.7-4.4c3.1-0.2,6.2,0,9.3,0c3.8-0.1,7.7-0.4,11.5,0.4
		c5.7,1.2,10.3,3.6,12.1,9.6c1.8,6.2,0.1,11.5-4.4,16c-1.2,1.2-2.6,2.4-4.1,3.2c-9.8,5.3-20,5.9-30.2,1.7
		C252.2,158.4,249.9,145.2,258.2,136.5z M285.9,90.2c-3.7,9.8-15.3,12.3-22.7,4.8c-7.3-7.3-8.1-22.3-1.6-30.3c6-7.4,16.5-7,21.8,1
		c3,4.5,3.7,9.7,3.9,15.4C287.3,83.9,287.1,87.1,285.9,90.2z"/>
	<path class="st0" d="M155.4,120.5c-0.3-2.4-2-1.1-3.1-0.9c-1,0.2-1.9,0.4-2.9,0.6c-4,0.8-5.5-0.1-6.5-4c-0.8-2.8-0.7-5.7-0.7-8.5
		c0-34.7,0.1-69.4,0.2-104c0-4.1-0.3-4.4-4.1-2.7c-4.7,2.1-9.4,3.9-14.2,5.5c-1.2,0.4-2.7,0.3-2.9,2.3c-0.2,2,1.1,2.6,2.4,3.3
		c3.9,2,5.3,5.3,5.3,9.5c0,10.2-0.1,20.4,0,30.6c0,2.4-0.6,3.4-3.2,2.7c-4.5-1.1-9.1-1-13.7-0.8c-21.6,1.2-37.5,16.6-38.6,38
		c-0.7,13.1,3.6,24.5,15.2,31.6c11.6,7.1,23.6,6.5,35.3-0.3c1.5-0.9,2.7-2.1,5.1-2.4c0,2.3-0.1,4.5,0,6.7c0.1,1.9,0.8,3.1,3.1,2.4
		c7-2.3,14.1-3.9,21.3-5.2C156.2,124.3,155.6,122.2,155.4,120.5z M123.9,117.3c-8.8,4.1-17.2,3.3-24.9-2.6
		c-13.9-10.7-15.1-37-2.3-49.1c5.8-5.4,12.7-7.2,20.3-5.1c7.7,2.1,11.5,7.3,11.6,15.2c0,5.3,0,10.7,0,16c0,0,0,0,0,0
		c0,6-0.1,11.9,0,17.9C128.7,113.3,127.2,115.7,123.9,117.3z"/>
	<path class="st0" d="M344.5,56.6c-20.7,0.1-36.1,15.9-36.2,37c0,20.5,14.4,34.9,34.9,35c20.9,0.1,36.1-15.2,36.2-36.3
		C379.4,71.8,364.5,56.5,344.5,56.6z M360.4,113.2c-6.1,12.1-21.6,13.5-29.8,2.7c-8.6-11.2-9.9-32.5-2.7-44.7
		c6.8-11.5,21.1-12.4,29.2-1.8c5.7,7.5,6.9,16.3,7.3,24.7C364.3,101.2,363.4,107.4,360.4,113.2z"/>
	<path class="st0" d="M372.6,45.7c-3.9-0.2-7.2,2.8-7.4,6.7c-0.2,3.9,2.9,7.1,6.9,7.2c4,0.1,7.2-2.9,7.3-6.8
		C379.5,49.3,376.2,45.9,372.6,45.7z M376,56.5c-0.4-0.5-0.9-1.1-1.4-1.8c-0.3-0.4-0.5-0.8-0.8-1.2c0.2-0.1,0.9-0.6,1.3-1.5
		c0-0.1,0.5-1.3-0.2-2.4c-1.1-1.9-4.3-1.1-4.6-1.1c-0.2,0.1-0.5,0.1-0.6,0.3c-0.5,0.5-0.3,1.5-0.3,2.2c0,2.1,0.1,4.1,0.2,6.2
		c0,0,0,0,0.1,0c0,0,0,0,0,0c0.1,0.1,0.2,0.2,0.2,0.2c0.4,0.4,0.9,0.5,1.2,0.6c-0.1-0.8-0.1-1.6-0.1-2.4c0-0.7,0-1.5,0-2.2
		c0.4,0,0.8,0,1.1,0c0.8,1.4,1.7,2.7,2.5,4.1c-0.4,0.2-1.8,0.9-3.5,0.4c-0.7-0.2-1.2-0.6-1.6-0.8c-3-1.9-3.8-5-2-7.7
		c1.6-2.5,4.9-3.2,7.5-1.6c0.4,0.3,1.7,1.1,2.3,2.7C378.2,52.5,377.6,54.8,376,56.5z M373.6,51c-0.1,0.4-0.4,0.6-0.5,0.7
		c-0.3,0.2-0.6,0.2-1,0.2c-0.2,0-0.6,0-1-0.1c0-0.3,0-0.6,0-1c0-0.3,0-0.6,0-0.8c0.3-0.1,0.9-0.3,1.5-0.1c0.3,0.1,0.8,0.2,1,0.6
		C373.7,50.7,373.6,51,373.6,51z"/>
</g>
</svg>
