<?xml version="1.0" encoding="utf-8"?>
<!-- Generator: Adobe Illustrator 21.0.2, SVG Export Plug-In . SVG Version: 6.00 Build 0)  -->
<svg version="1.1" id="Home_Icon" xmlns="http://www.w3.org/2000/svg" xmlns:xlink="http://www.w3.org/1999/xlink" x="0px" y="0px"
	 viewBox="0 0 10 9.3" style="enable-background:new 0 0 10 9.3;" xml:space="preserve">
<style type="text/css">
	.st0{fill:#FFFFFF;}
</style>
<path class="st0" d="M7.2,1.7V1h1.1v1.8L7.2,1.7z M5,1.6L1.1,5.6v3.7h2.9V6.4h2.1v2.9h2.9V5.6L5,1.6z M9.9,5.5C10,5.3,10,5,9.9,4.9
	L5,0L0.1,4.9C0,5,0,5.3,0.1,5.5c0.2,0.2,0.4,0.2,0.6,0L5,1.2l4.3,4.3c0.1,0.1,0.2,0.1,0.3,0.1S9.8,5.6,9.9,5.5z"/>
</svg>
