<svg id="Layer_1" data-name="Layer 1" xmlns="http://www.w3.org/2000/svg" viewBox="0 0 100 100"><defs><style>.cls-1{fill:#fff;}</style></defs><title>urbanspoon-logo</title><path class="cls-1" d="M378,490H364a11.23,11.23,0,0,0-2.2-.94c-14-2.7-25.19-9.9-32.54-22C325.54,461,323.69,453.73,321,447v-4c6.82.27,13.68.15,20.43,1a16.23,16.23,0,0,1,8.51,4.12c4,3.69,8.2,6.3,13.57,6.68a60,60,0,0,0,35-8.08c6.62-3.84,6.79-7.33.37-11.36-10.69-6.71-22.43-10.11-35.13-9.36a18.71,18.71,0,0,0-14.41,7.85,11.26,11.26,0,0,1-6.91,4c-7.09.81-14.27.82-21.42,1.14q0-3,0-6a22.34,22.34,0,0,0,1-2.72c4.31-18.94,15.77-31.48,34-37.93,2.62-.93,5.34-1.57,8-2.35h14a11.1,11.1,0,0,0,2.2.94c13.59,2.63,24.68,9.5,32,21.16,4,6.34,6,13.89,8.84,20.9v14a22.88,22.88,0,0,0-1,2.73c-4.33,18.92-15.72,31.53-34,37.94C383.4,488.59,380.68,489.23,378,490Z" transform="translate(-321 -390)"/></svg>